<svg width="80" height="48" viewBox="0 0 80 48" fill="none" xmlns="http://www.w3.org/2000/svg">
<path d="M2.11389 40.1322C1.46701 39.8556 0.955721 39.4572 0.580966 38.9361C0.204327 38.4159 0.0112992 37.8004 0 37.0914H2.48676C2.51971 37.5682 2.68826 37.9448 2.9924 38.2215C3.29559 38.499 3.71272 38.6368 4.24284 38.6368C4.78426 38.6368 5.20986 38.5066 5.51964 38.246C5.82849 37.9864 5.98385 37.6456 5.98385 37.2245C5.98385 36.8809 5.87839 36.5986 5.66842 36.3768C5.45844 36.1558 5.19573 35.9812 4.88124 35.8537C4.56675 35.7263 4.13267 35.5856 3.57995 35.4299C2.82856 35.208 2.2184 34.9899 1.74855 34.7737C1.27869 34.5575 0.875686 34.2309 0.539535 33.7929C0.201502 33.3557 0.0338975 32.7714 0.0338975 32.0397C0.0338975 31.3534 0.204327 30.7549 0.547068 30.2451C0.88981 29.7362 1.37002 29.3454 1.9896 29.0744C2.60822 28.8025 3.31536 28.6666 4.11101 28.6666C5.30402 28.6666 6.27386 28.9574 7.01961 29.5389C7.76535 30.1204 8.17683 30.9323 8.25404 31.9736H5.70231C5.67972 31.5752 5.51117 31.2458 5.19573 30.9843C4.88124 30.7246 4.46411 30.5944 3.94529 30.5944C3.49144 30.5944 3.12987 30.7105 2.85963 30.9437C2.58845 31.1759 2.45286 31.5139 2.45286 31.9566C2.45286 32.2672 2.5555 32.525 2.75982 32.7298C2.96415 32.9347 3.21838 33.1009 3.52252 33.2283C3.82571 33.3557 4.25414 33.5021 4.80685 33.6682C5.55825 33.8901 6.17123 34.1119 6.64674 34.3329C7.1213 34.5547 7.52995 34.887 7.8727 35.3298C8.21544 35.7735 8.38681 36.355 8.38681 37.0754C8.38681 37.6956 8.22579 38.2715 7.90565 38.803C7.58551 39.3345 7.11565 39.7584 6.49702 40.0747C5.87839 40.39 5.14395 40.5476 4.29274 40.5476C3.48579 40.5476 2.75982 40.4098 2.11389 40.1322ZM16.6898 34.3744C16.4685 33.9703 16.1701 33.6607 15.7944 33.4435C15.4196 33.2283 15.0157 33.1197 14.5853 33.1197C14.1541 33.1197 13.7558 33.2255 13.3914 33.436C13.027 33.6465 12.7313 33.9543 12.5054 34.3583C12.2784 34.7624 12.1654 35.242 12.1654 35.7952C12.1654 36.3494 12.2784 36.8337 12.5054 37.2491C12.7313 37.6645 13.0298 37.9836 13.3999 38.2054C13.7699 38.4263 14.1644 38.5377 14.5853 38.5377C15.0157 38.5377 15.4196 38.4291 15.7944 38.213C16.1701 37.9977 16.4685 37.6871 16.6898 37.2831C16.9101 36.8781 17.0213 36.3937 17.0213 35.8292C17.0213 35.2637 16.9101 34.7794 16.6898 34.3744ZM10.35 33.3199C10.7201 32.5996 11.2229 32.0454 11.8585 31.6583C12.4941 31.2703 13.204 31.0768 13.9884 31.0768C14.6739 31.0768 15.2727 31.2146 15.7868 31.4922C16.3 31.7688 16.7115 32.1181 17.0213 32.5382V31.2259H19.3583V40.4315H17.0213V39.0853C16.7228 39.5177 16.3113 39.8745 15.7868 40.1577C15.2614 40.44 14.6569 40.5816 13.9714 40.5816C13.1984 40.5816 12.4941 40.3815 11.8585 39.9831C11.2229 39.5837 10.7201 39.022 10.35 38.296C9.97999 37.571 9.79544 36.7374 9.79544 35.7952C9.79544 34.8644 9.97999 34.0402 10.35 33.3199ZM25.8384 33.1367H24.2301V40.4315H21.8771V33.1367H20.8328V31.2259H21.8771V30.7605C21.8771 29.6305 22.1972 28.7997 22.8384 28.2682C23.4797 27.7357 24.4467 27.4874 25.7386 27.5205V29.4813C25.1755 29.47 24.7828 29.5644 24.5625 29.7636C24.3412 29.9628 24.2301 30.3225 24.2301 30.8436V31.2259H25.8384V33.1367ZM33.4785 34.9644C33.4672 34.3659 33.2516 33.8873 32.8316 33.5276C32.4117 33.1669 31.8985 32.9866 31.2912 32.9866C30.7158 32.9866 30.2328 33.1613 29.8402 33.5106C29.4485 33.8599 29.2074 34.3442 29.1198 34.9644H33.4785ZM35.8155 36.5269H29.1029C29.1584 37.1915 29.3901 37.7126 29.7987 38.0883C30.2083 38.465 30.7111 38.6538 31.3072 38.6538C32.1687 38.6538 32.7827 38.2828 33.1471 37.5398H35.6498C35.3843 38.4263 34.8758 39.1551 34.1254 39.7253C33.373 40.2965 32.4512 40.5816 31.3571 40.5816C30.4729 40.5816 29.6801 40.3843 28.9786 39.9916C28.2771 39.5979 27.73 39.0418 27.3383 38.3215C26.9457 37.6012 26.7498 36.7704 26.7498 35.8292C26.7498 34.8757 26.9429 34.0402 27.3299 33.3189C27.7169 32.5996 28.2583 32.0454 28.9541 31.6574C29.65 31.2703 30.4513 31.0768 31.3571 31.0768C32.2299 31.0768 33.0115 31.2646 33.7026 31.6413C34.3928 32.018 34.9286 32.5524 35.3099 33.2443C35.6912 33.9373 35.8815 34.7322 35.8815 35.6291C35.8815 35.9614 35.8589 36.2606 35.8155 36.5269ZM43.1572 33.6607C43.466 33.3671 43.6214 32.9536 43.6214 32.4221C43.6214 31.292 42.9915 30.7275 41.7316 30.7275H39.8917V34.1006H41.7316C42.3728 34.1006 42.8474 33.9543 43.1572 33.6607ZM45.5686 34.1667C45.2758 34.7095 44.8172 35.1476 44.1929 35.4799C43.5687 35.8122 42.7815 35.9784 41.8314 35.9784H39.8917V40.4315H37.5716V28.8327H41.8314C42.7259 28.8327 43.4886 28.9885 44.1185 29.2982C44.7485 29.6088 45.2202 30.0355 45.5356 30.5774C45.8501 31.1211 46.0074 31.7357 46.0074 32.4221C46.0074 33.0433 45.8614 33.6248 45.5686 34.1667ZM53.946 34.3744C53.7247 33.9703 53.4272 33.6607 53.0515 33.4435C52.6758 33.2283 52.2728 33.1197 51.8415 33.1197C51.4103 33.1197 51.0129 33.2255 50.6476 33.436C50.2841 33.6465 49.9875 33.9543 49.7615 34.3583C49.5346 34.7624 49.4216 35.242 49.4216 35.7952C49.4216 36.3494 49.5346 36.8337 49.7615 37.2491C49.9875 37.6645 50.286 37.9836 50.657 38.2054C51.027 38.4263 51.4216 38.5377 51.8415 38.5377C52.2728 38.5377 52.6758 38.4291 53.0515 38.213C53.4272 37.9977 53.7247 37.6871 53.946 37.2831C54.1673 36.8781 54.2774 36.3937 54.2774 35.8292C54.2774 35.2637 54.1673 34.7794 53.946 34.3744ZM47.6072 33.3199C47.9772 32.5996 48.4791 32.0454 49.1147 31.6583C49.7502 31.2703 50.4602 31.0768 51.2446 31.0768C51.93 31.0768 52.5289 31.2146 53.043 31.4922C53.5571 31.7688 53.9686 32.1181 54.2774 32.5382V31.2259H56.6145V40.4315H54.2774V39.0853C53.9799 39.5177 53.5675 39.8745 53.043 40.1577C52.5176 40.44 51.9131 40.5816 51.2285 40.5816C50.4546 40.5816 49.7502 40.3815 49.1147 39.9831C48.4791 39.5837 47.9772 39.022 47.6072 38.296C47.2362 37.571 47.0516 36.7374 47.0516 35.7952C47.0516 34.8644 47.2362 34.0402 47.6072 33.3199ZM71.6132 31.2259L68.9287 40.4315H66.4259L64.7518 34.0005L63.0786 40.4315H60.5588L57.8574 31.2259H60.2104L61.8356 38.2384L63.5917 31.2259H66.0446L67.7686 38.2215L69.3929 31.2259H71.6132ZM74.3645 40.1738C73.7676 39.9028 73.2958 39.5346 72.9474 39.0692C72.6 38.6038 72.4088 38.0883 72.3759 37.5238H74.7129C74.7562 37.8788 74.9304 38.1714 75.2346 38.4046C75.5387 38.6368 75.9163 38.753 76.3701 38.753C76.8118 38.753 77.1573 38.6652 77.4059 38.4877C77.6545 38.3102 77.7788 38.0836 77.7788 37.8061C77.7788 37.5068 77.6262 37.2831 77.323 37.1329C77.0189 36.9838 76.5359 36.8205 75.873 36.643C75.1875 36.4768 74.6272 36.305 74.1903 36.1275C73.7544 35.951 73.3787 35.6791 73.0642 35.3137C72.7488 34.9484 72.5915 34.4556 72.5915 33.8344C72.5915 33.3255 72.7375 32.8601 73.0303 32.4391C73.3231 32.018 73.7431 31.6857 74.2902 31.4421C74.8372 31.1986 75.4803 31.0758 76.2204 31.0758C77.3146 31.0758 78.1874 31.3506 78.839 31.8991C79.4915 32.4466 79.8503 33.1868 79.9162 34.1167H77.6959C77.663 33.7513 77.5114 33.4605 77.2402 33.2443C76.969 33.0291 76.6074 32.9205 76.1545 32.9205C75.7346 32.9205 75.4116 32.9979 75.1847 33.1537C74.9587 33.3085 74.8447 33.5247 74.8447 33.8013C74.8447 34.1119 75.0001 34.347 75.3099 34.5075C75.6187 34.668 76.099 34.8313 76.7515 34.9975C77.4144 35.1636 77.9614 35.3355 78.3917 35.5129C78.823 35.6904 79.1959 35.9642 79.5113 36.3352C79.8258 36.7062 79.9887 37.1971 80 37.8061C80 38.3376 79.8531 38.8143 79.5603 39.2354C79.2674 39.6564 78.8475 39.9859 78.3004 40.2238C77.7543 40.4617 77.1159 40.5816 76.3871 40.5816C75.6357 40.5816 74.9615 40.4457 74.3645 40.1738Z" fill="#5A4FCF"/>
<path d="M14.9177 45.9193C15.0325 45.7106 15.1898 45.5483 15.3894 45.4312C15.5881 45.3151 15.8103 45.2565 16.0561 45.2565C16.3546 45.2565 16.6107 45.3283 16.8244 45.4699C17.0372 45.6125 17.1926 45.8126 17.2896 46.0713H16.9751C16.8988 45.8891 16.782 45.7475 16.6248 45.6446C16.4675 45.5426 16.2783 45.4916 16.0561 45.4916C15.8593 45.4916 15.6823 45.5369 15.525 45.6295C15.3678 45.722 15.2453 45.8541 15.1559 46.0269C15.0664 46.1997 15.0212 46.3998 15.0212 46.6283C15.0212 46.8558 15.0664 47.0559 15.1559 47.2278C15.2453 47.3986 15.3678 47.5308 15.525 47.6233C15.6823 47.7149 15.8593 47.7612 16.0561 47.7612C16.2783 47.7612 16.4675 47.7111 16.6248 47.6092C16.782 47.5081 16.8988 47.3684 16.9751 47.189H17.2896C17.1926 47.4449 17.0363 47.6441 16.8216 47.7848C16.6078 47.9254 16.3517 47.9953 16.0561 47.9953C15.8103 47.9953 15.5881 47.9377 15.3894 47.8206C15.1898 47.7045 15.0325 47.5421 14.9177 47.3354C14.8028 47.1277 14.7454 46.8917 14.7454 46.6283C14.7454 46.3649 14.8028 46.1279 14.9177 45.9193ZM18.653 45.2877V46.9776C18.653 47.2438 18.7161 47.4411 18.8432 47.5695C18.9694 47.6979 19.1426 47.7612 19.362 47.7612C19.5814 47.7612 19.7537 47.6979 19.8771 47.5714C20.0014 47.4439 20.0635 47.2466 20.0635 46.9776V45.2877H20.3309V46.9738C20.3309 47.3146 20.2415 47.5704 20.0616 47.7423C19.8808 47.9141 19.6464 48 19.3582 48C19.0692 48 18.8357 47.9141 18.6549 47.7423C18.475 47.5704 18.3846 47.3146 18.3846 46.9738V45.2877H18.653ZM21.7716 47.9726H21.5032V45.2877H21.7716V47.9726ZM24.6011 47.4562C24.796 47.2599 24.8939 46.987 24.8939 46.6358C24.8939 46.2827 24.796 46.0061 24.6011 45.8079C24.4052 45.6096 24.1218 45.5105 23.7489 45.5105H23.2235V47.7498H23.7489C24.1218 47.7498 24.4052 47.6516 24.6011 47.4562ZM24.5107 45.4491C24.7225 45.5568 24.8854 45.7116 24.9975 45.9136C25.1095 46.1156 25.166 46.3564 25.166 46.6358C25.166 46.9124 25.1095 47.1513 24.9975 47.3524C24.8854 47.5535 24.7225 47.7073 24.5107 47.8131C24.2988 47.9198 24.0446 47.9726 23.7489 47.9726H22.9551V45.2877H23.7489C24.0446 45.2877 24.2988 45.3415 24.5107 45.4491ZM27.7065 47.1126L27.1773 45.6606L26.649 47.1126H27.7065ZM27.7865 47.3354H26.5681L26.3345 47.9726H26.0511L27.0276 45.3226H27.3308L28.3034 47.9726H28.02L27.7865 47.3354ZM31.9239 45.3226V47.9726H31.6555V45.856L30.7139 47.9726H30.5181L29.5755 45.8636V47.9726H29.3072V45.3226H29.5906L30.6141 47.6195L31.6367 45.3226H31.9239ZM34.8475 47.6271C35.0057 47.5346 35.1309 47.4024 35.2223 47.2296C35.3146 47.0569 35.3607 46.8558 35.3607 46.6283C35.3607 46.3998 35.3146 46.2006 35.2223 46.0288C35.1309 45.857 35.0057 45.7257 34.8475 45.6332C34.6884 45.5417 34.5104 45.4954 34.3108 45.4954C34.1112 45.4954 33.9332 45.5417 33.7741 45.6332C33.6159 45.7257 33.4907 45.857 33.3993 46.0288C33.3071 46.2006 33.2609 46.3998 33.2609 46.6283C33.2609 46.8558 33.3071 47.0569 33.3993 47.2296C33.4907 47.4024 33.6159 47.5346 33.7741 47.6271C33.9332 47.7187 34.1112 47.7649 34.3108 47.7649C34.5104 47.7649 34.6884 47.7187 34.8475 47.6271ZM33.6366 47.8244C33.4351 47.7083 33.276 47.5459 33.1592 47.3373C33.0434 47.1286 32.985 46.8917 32.985 46.6283C32.985 46.3639 33.0434 46.1279 33.1592 45.9193C33.276 45.7106 33.4351 45.5483 33.6366 45.4321C33.8381 45.3151 34.0632 45.2565 34.3108 45.2565C34.5613 45.2565 34.7873 45.3151 34.9888 45.4321C35.1903 45.5483 35.3494 45.7106 35.4643 45.9193C35.5791 46.1279 35.6366 46.3639 35.6366 46.6283C35.6366 46.8917 35.5791 47.1286 35.4643 47.3373C35.3494 47.5459 35.1903 47.7083 34.9888 47.8244C34.7873 47.9415 34.5613 48 34.3108 48C34.0632 48 33.8381 47.9415 33.6366 47.8244ZM37.048 47.9075C36.9143 47.8461 36.8089 47.7602 36.7317 47.6498C36.6554 47.5393 36.6149 47.4166 36.6093 47.2816H36.8927C36.9059 47.4118 36.9633 47.5261 37.065 47.6252C37.1676 47.7234 37.3173 47.7725 37.5141 47.7725C37.6949 47.7725 37.839 47.7262 37.9444 47.6328C38.0508 47.5393 38.1036 47.4213 38.1036 47.2768C38.1036 47.1626 38.0744 47.0692 38.016 46.9993C37.9567 46.9285 37.8842 46.8756 37.7976 46.8416C37.71 46.8067 37.5904 46.7689 37.4369 46.7283C37.258 46.6793 37.1168 46.632 37.0123 46.5858C36.9068 46.5395 36.8173 46.4678 36.7439 46.3705C36.6695 46.2733 36.6328 46.1421 36.6328 45.975C36.6328 45.8372 36.6686 45.7135 36.7401 45.6049C36.8117 45.4954 36.9124 45.4104 37.0424 45.3491C37.1723 45.2877 37.322 45.2565 37.4906 45.2565C37.7382 45.2565 37.9378 45.3179 38.0904 45.4397C38.242 45.5615 38.3296 45.7173 38.3531 45.9098H38.0612C38.0433 45.8003 37.984 45.7021 37.8814 45.6162C37.7797 45.5303 37.6412 45.4878 37.468 45.4878C37.307 45.4878 37.1723 45.5303 37.065 45.6162C36.9586 45.7021 36.9049 45.8192 36.9049 45.9674C36.9049 46.0798 36.9341 46.1713 36.9925 46.2403C37.0518 46.3092 37.1252 46.362 37.2128 46.3979C37.3013 46.4338 37.42 46.4716 37.5716 46.5131C37.7448 46.5612 37.8851 46.6094 37.9925 46.6575C38.0998 46.7038 38.1902 46.7765 38.2646 46.8737C38.339 46.971 38.3757 47.1022 38.3757 47.2655C38.3757 47.3911 38.3427 47.51 38.2759 47.6233C38.21 47.7357 38.1111 47.8263 37.9812 47.8962C37.8512 47.9651 37.6949 47.9991 37.5141 47.9991C37.3371 47.9991 37.1827 47.9688 37.048 47.9075ZM41.1412 45.9193C41.257 45.7106 41.4133 45.5483 41.6129 45.4312C41.8116 45.3151 42.0338 45.2565 42.2796 45.2565C42.578 45.2565 42.8342 45.3283 43.0479 45.4699C43.2607 45.6125 43.4161 45.8126 43.513 46.0713H43.1986C43.1223 45.8891 43.0055 45.7475 42.8483 45.6446C42.691 45.5426 42.5018 45.4916 42.2796 45.4916C42.0828 45.4916 41.9057 45.5369 41.7485 45.6295C41.5922 45.722 41.4688 45.8541 41.3794 46.0269C41.2899 46.1997 41.2447 46.3998 41.2447 46.6283C41.2447 46.8558 41.2899 47.0559 41.3794 47.2278C41.4688 47.3986 41.5922 47.5308 41.7485 47.6233C41.9057 47.7149 42.0828 47.7612 42.2796 47.7612C42.5018 47.7612 42.691 47.7111 42.8483 47.6092C43.0055 47.5081 43.1223 47.3684 43.1986 47.189H43.513C43.4161 47.4449 43.2598 47.6441 43.0451 47.7848C42.8313 47.9254 42.5752 47.9953 42.2796 47.9953C42.0338 47.9953 41.8116 47.9377 41.6129 47.8206C41.4133 47.7045 41.257 47.5421 41.1412 47.3354C41.0263 47.1277 40.9689 46.8917 40.9689 46.6283C40.9689 46.3649 41.0263 46.1279 41.1412 45.9193ZM46.3595 47.6271C46.5177 47.5346 46.6429 47.4024 46.7352 47.2296C46.8265 47.0569 46.8727 46.8558 46.8727 46.6283C46.8727 46.3998 46.8265 46.2006 46.7352 46.0288C46.6429 45.857 46.5177 45.7257 46.3595 45.6332C46.2013 45.5417 46.0224 45.4954 45.8228 45.4954C45.6241 45.4954 45.4452 45.5417 45.287 45.6332C45.1288 45.7257 45.0036 45.857 44.9113 46.0288C44.819 46.2006 44.7738 46.3998 44.7738 46.6283C44.7738 46.8558 44.819 47.0569 44.9113 47.2296C45.0036 47.4024 45.1288 47.5346 45.287 47.6271C45.4452 47.7187 45.6241 47.7649 45.8228 47.7649C46.0224 47.7649 46.2013 47.7187 46.3595 47.6271ZM45.1486 47.8244C44.9471 47.7083 44.788 47.5459 44.6722 47.3373C44.5554 47.1286 44.498 46.8917 44.498 46.6283C44.498 46.3639 44.5554 46.1279 44.6722 45.9193C44.788 45.7106 44.9471 45.5483 45.1486 45.4321C45.3501 45.3151 45.5751 45.2565 45.8228 45.2565C46.0732 45.2565 46.2992 45.3151 46.5017 45.4321C46.7032 45.5483 46.8614 45.7106 46.9762 45.9193C47.0911 46.1279 47.1486 46.3639 47.1486 46.6283C47.1486 46.8917 47.0911 47.1286 46.9762 47.3373C46.8614 47.5459 46.7032 47.7083 46.5017 47.8244C46.2992 47.9415 46.0732 48 45.8228 48C45.5751 48 45.3501 47.9415 45.1486 47.8244ZM50.2332 47.9726H49.9649L48.4819 45.7144V47.9726H48.2135V45.2877H48.4819L49.9649 47.5421V45.2877H50.2332V47.9726ZM54.5118 47.1126L53.9836 45.6606L53.4544 47.1126H54.5118ZM54.5928 47.3354H53.3744L53.1409 47.9726H52.8575L53.8339 45.3226H54.1362L55.1098 47.9726H54.8263L54.5928 47.3354ZM58.7302 45.3226V47.9726H58.4618V45.856L57.5193 47.9726H57.3244L56.3819 45.8636V47.9726H56.1135V45.3226H56.3969L57.4195 47.6195L58.443 45.3226H58.7302ZM61.6529 47.6271C61.8111 47.5346 61.9363 47.4024 62.0286 47.2296C62.1209 47.0569 62.1661 46.8558 62.1661 46.6283C62.1661 46.3998 62.1209 46.2006 62.0286 46.0288C61.9363 45.857 61.8111 45.7257 61.6529 45.6332C61.4947 45.5417 61.3158 45.4954 61.1172 45.4954C60.9175 45.4954 60.7386 45.5417 60.5804 45.6332C60.4223 45.7257 60.297 45.857 60.2047 46.0288C60.1134 46.2006 60.0673 46.3998 60.0673 46.6283C60.0673 46.8558 60.1134 47.0569 60.2047 47.2296C60.297 47.4024 60.4223 47.5346 60.5804 47.6271C60.7386 47.7187 60.9175 47.7649 61.1172 47.7649C61.3158 47.7649 61.4947 47.7187 61.6529 47.6271ZM60.443 47.8244C60.2405 47.7083 60.0814 47.5459 59.9656 47.3373C59.8498 47.1286 59.7914 46.8917 59.7914 46.6283C59.7914 46.3639 59.8498 46.1279 59.9656 45.9193C60.0814 45.7106 60.2405 45.5483 60.443 45.4321C60.6445 45.3151 60.8695 45.2565 61.1172 45.2565C61.3667 45.2565 61.5927 45.3151 61.7951 45.4321C61.9966 45.5483 62.1548 45.7106 62.2697 45.9193C62.3845 46.1279 62.442 46.3639 62.442 46.6283C62.442 46.8917 62.3845 47.1286 62.2697 47.3373C62.1548 47.5459 61.9966 47.7083 61.7951 47.8244C61.5927 47.9415 61.3667 48 61.1172 48C60.8695 48 60.6445 47.9415 60.443 47.8244ZM63.7753 46.632H64.3158C64.5248 46.632 64.683 46.5811 64.7884 46.4782C64.8948 46.3762 64.9476 46.2393 64.9476 46.0675C64.9476 45.891 64.8967 45.7541 64.795 45.6587C64.6924 45.5624 64.5314 45.5143 64.312 45.5143H63.7753V46.632ZM64.9325 47.9726L64.2696 46.8511H63.7753V47.9726H63.5069V45.2877H64.312C64.6105 45.2877 64.8374 45.3595 64.9918 45.5029C65.1462 45.6464 65.2235 45.8343 65.2235 46.0675C65.2235 46.262 65.1679 46.4281 65.0568 46.565C64.9457 46.7019 64.7818 46.7907 64.5643 46.8322L65.2545 47.9726H64.9325ZM35.0575 21.5341C34.565 20.7043 33.7195 18.852 34.275 16.5815C34.421 15.983 34.6733 15.781 34.7995 15.7555C34.8117 15.7536 34.824 15.7527 34.8362 15.7527C35.0029 15.7527 35.1677 15.9613 35.2147 16.0255C35.7364 16.7439 36 18.6113 35.0575 21.5341ZM39.774 13.6918C39.5131 13.6436 39.0857 13.5983 38.6271 13.5502C38.1516 13.5011 37.6591 13.4491 37.4096 13.3982C35.3974 12.9818 34.0971 11.325 34.0971 9.17725C34.0971 6.78405 36.065 4.83739 38.5028 4.83739H38.5037C38.5179 4.83739 38.5329 4.83739 38.5471 4.83644C39.806 4.75242 41.2796 5.04036 41.9199 5.1848C41.9547 5.80505 42.0818 9.03187 41.0046 10.0345C40.9877 10.0458 40.9717 10.0581 40.9547 10.0722C40.419 10.5244 39.6101 10.4593 39.1535 9.92873L39.1374 9.91079C39.0094 9.75785 38.9209 9.57942 38.8747 9.38117C38.871 9.36607 38.8672 9.3519 38.8625 9.33774C38.7439 8.97428 38.7523 8.65707 38.8879 8.39651C38.983 8.21242 38.9623 7.98868 38.8352 7.82441C38.6996 7.64881 38.4651 7.57706 38.2542 7.64598C37.9755 7.73661 37.6629 7.6913 37.3249 7.51381C37.3117 7.5072 37.2976 7.50059 37.2834 7.49399C37.097 7.41563 36.936 7.29856 36.806 7.14657L36.7919 7.12863C36.6827 6.99646 36.6027 6.84636 36.5528 6.68303C36.4671 6.40359 36.1705 6.24499 35.8918 6.3309C35.6121 6.41681 35.4539 6.71419 35.5396 6.99363C35.63 7.28818 35.775 7.55913 35.968 7.79514L35.9916 7.82535C36.227 8.1048 36.5179 8.32004 36.8494 8.46259C37.1394 8.6127 37.4332 8.70616 37.7241 8.73921C37.7081 9.03187 37.7505 9.33774 37.8484 9.64362C37.935 10.0005 38.0989 10.3252 38.338 10.6075C38.3503 10.6226 38.3635 10.6377 38.3729 10.6462C39.1986 11.5799 40.6101 11.7026 41.5752 10.9332C41.6007 10.9181 41.6251 10.9011 41.6468 10.8813C43.3473 9.41704 42.9914 5.18575 42.9453 4.709C42.9236 4.48714 42.7654 4.30116 42.5507 4.24546C42.4613 4.22186 40.3286 3.65825 38.4915 3.77532C35.485 3.77532 33.0387 6.19873 33.0387 9.17725C33.0387 11.8093 34.7091 13.924 37.1959 14.4376C37.4972 14.4999 38.016 14.5546 38.5169 14.6066C38.9115 14.6481 39.3578 14.6944 39.5791 14.7359C41.5602 15.1069 42.7428 16.6712 42.7428 18.919C42.7428 21.3123 40.8012 23.2589 38.4143 23.2589C37.4868 23.2589 36.6074 22.9729 35.8654 22.4291C36.9567 19.3495 37.0339 16.726 36.0697 15.4005C35.6752 14.8567 35.1357 14.6066 34.5942 14.7142C33.9577 14.8397 33.4662 15.4288 33.2459 16.3285C32.3598 19.95 34.4784 22.5896 34.5698 22.701C34.5811 22.7142 34.5924 22.7265 34.6046 22.7387L34.6187 22.7529C34.2204 23.7555 33.712 24.8194 33.1046 25.9183C32.9634 26.1742 33.0566 26.498 33.3118 26.6396C33.3909 26.683 33.4794 26.7057 33.5679 26.7057C33.7609 26.7057 33.9379 26.6009 34.0312 26.4329C34.5971 25.4085 35.082 24.405 35.4756 23.4487C36.3465 24.0198 37.3606 24.321 38.4143 24.321C41.385 24.321 43.8021 21.8976 43.8021 18.919C43.8021 16.1605 42.2588 14.1581 39.774 13.6918ZM44.5413 6.8794C44.2739 7.14657 44.126 7.50154 44.1251 7.87916C44.1241 8.25773 44.2701 8.61365 44.5356 8.88176C44.8115 9.15837 45.174 9.29809 45.5375 9.29809C45.8972 9.29809 46.2578 9.16026 46.5327 8.88648C46.8002 8.61931 46.948 8.26434 46.9489 7.88672C46.9499 7.50815 46.8039 7.15223 46.5375 6.88506C45.9885 6.3309 45.093 6.32901 44.5413 6.8794ZM39.6252 2.83031H39.628C40.0037 2.83031 40.3578 2.68398 40.6242 2.4187C40.8916 2.15153 41.0395 1.79656 41.0395 1.41893C41.0404 1.04036 40.8945 0.685395 40.6289 0.417281C40.3625 0.149167 40.0084 0.000948785 39.6318 4.5391e-06C39.2636 -0.000939465 38.9002 0.14539 38.6327 0.411617C38.3653 0.678786 38.2175 1.03375 38.2166 1.41138C38.2156 1.78995 38.3616 2.14586 38.628 2.41303C38.8936 2.68115 39.2476 2.82936 39.6252 2.83031ZM44.5573 5.27071C44.8332 5.54827 45.1957 5.68705 45.5582 5.68705C45.9188 5.68705 46.2795 5.55016 46.5544 5.27543C46.8218 5.00921 46.9687 4.65424 46.9697 4.27567C46.9706 3.89805 46.8246 3.54213 46.5591 3.27402C46.0102 2.7208 45.1147 2.71891 44.5629 3.2693C44.0112 3.81969 44.0083 4.71749 44.5573 5.27071ZM44.0253 0.733542C43.7588 0.465428 43.4048 0.31721 43.0281 0.316266H43.0244C42.6487 0.316266 42.2956 0.462596 42.0291 0.728822C41.4773 1.27921 41.4745 2.17702 42.0234 2.73024C42.2993 3.00779 42.6618 3.14657 43.0244 3.14657C43.385 3.14657 43.7456 3.00968 44.0206 2.73496C44.5723 2.18457 44.5742 1.28676 44.0253 0.733542Z" fill="#1DC690"/>
</svg>
